<svg width="30" height="21" viewBox="0 0 30 21" fill="none" xmlns="http://www.w3.org/2000/svg">
<path d="M27.8438 16.5444H2.15616C0.965344 16.5444 0 17.5418 0 18.7722C0 20.0026 0.965344 21 2.15616 21H27.8438C29.0347 21 30 20.0026 30 18.7722C30 17.5418 29.0347 16.5444 27.8438 16.5444Z" fill="white"/>
<path d="M27.8438 0H2.15616C0.965344 0 0 0.99743 0 2.22782C0 3.45821 0.965344 4.45565 2.15616 4.45565H27.8438C29.0347 4.45565 30 3.45821 30 2.22782C30 0.99743 29.0347 0 27.8438 0Z" fill="white"/>
<path d="M27.8438 8.27216H2.15616C0.965344 8.27216 0 9.26959 0 10.5C0 11.7304 0.965344 12.7278 2.15616 12.7278H27.8438C29.0347 12.7278 30 11.7304 30 10.5C30 9.26959 29.0347 8.27216 27.8438 8.27216Z" fill="white"/>
</svg>